<svg width="290" height="300" viewBox="0 0 290 300" fill="none" xmlns="http://www.w3.org/2000/svg">
<path d="M283.575 150C283.575 229.731 221.24 294 144.788 294C68.3356 294 6 229.731 6 150C6 70.2692 68.3356 6 144.788 6C221.24 6 283.575 70.2692 283.575 150Z" fill="white" stroke="#0D131C" stroke-width="12"/>
<path d="M70 78C70 76.3431 71.3431 75 73 75H217C218.657 75 220 76.3431 220 78V218.482C220 221.045 216.995 222.428 215.049 220.761L147.473 162.908C146.356 161.952 144.711 161.946 143.587 162.895L74.9349 220.835C72.9844 222.481 70 221.095 70 218.542V78Z" fill="#0D131C"/>
</svg>
